<svg id="Ebene_1" data-name="Ebene 1" xmlns="http://www.w3.org/2000/svg" viewBox="0 0 519.95 320.89"><defs><style>.cls-1{fill:#fff;}</style></defs><title>boa</title><path class="cls-1" d="M169.57,289.25a5.19,5.19,0,0,1,.63.47c.29.38.58.76.86,1.15,12.35,16.72,28.13,27.74,49.31,29.94,13.69,1.43,27-.14,39.23-6.52,25.54-13.32,40.67-34.34,44.55-63a89.75,89.75,0,0,0-3.26-39.18c-7.73-24.79-31.5-51-62.86-54.31-11.68-1.22-23-.26-34.07,3.76C190.6,166.38,180,175,171.1,185.92c-.39.47-.79.93-1.19,1.39l-.4-.18V101.2H150.45V317.08h19.12Zm482.11-99.89a2.89,2.89,0,0,1-.46-.25c-.4-.52-.8-1-1.19-1.57C638,171,622.37,160.21,601.61,157.76c-11.73-1.39-23.23-.44-34.23,3.81-21.59,8.33-36.32,23.87-45.36,44.89-5.17,12-6.59,24.71-5.92,37.73s3.58,25.23,10.09,36.42c13,22.34,31.33,37.22,57.85,40.2a71.19,71.19,0,0,0,34.15-4.33c12.95-5,23.25-13.56,32-24.14.38-.46.79-.89,1.5-1.71v26.44h18.71V161.27H651.68Zm-241,132c10.7-.15,21.64-2,31.92-6.91,15-7.12,25.88-18.52,34-32.72,11-19.27,13.27-40,8.78-61.41C481,199.55,469.84,183,452.87,170.48c-11-8.09-23.44-12.14-37-13.06-14.19-1-28,.91-40.43,7.92-25.1,14.11-39.08,35.92-42.49,64.4a84.79,84.79,0,0,0,2.44,32.91,83.07,83.07,0,0,0,28.86,43.7C377.61,317,393.19,321.19,410.64,321.31ZM419.52,388c-8.38-7.53-19.25-5.49-25,2-5.12,6.7-5.29,17.75-.29,24.56,4.86,6.62,12.72,9.2,19.77,6.31a43.75,43.75,0,0,0,5.44-3.18l.18,3.13h9.06V384.42h-9.19Zm-59.35-.9V370.07H351v50.79h9.22c0-.8,0-1.45,0-2.1,0-5.69-.1-11.38.1-17.06a15.48,15.48,0,0,1,1.48-5.82,7,7,0,0,1,7.07-4c3.28.49,5.18,2.62,5.32,6.59.24,6.76.26,13.52.37,20.28,0,.69,0,1.39,0,2.11h9c0-9.14.45-18.19-.14-27.18-.48-7.23-7.41-11.77-14.51-10.12C365.87,384.29,363.1,385.9,360.16,387.13Zm114.52-2.85c-2.29-1.17-4.52-1.52-6.58-.48a44.46,44.46,0,0,0-5.22,3.58l-.14-3H454.9V420.9H464c0-5.19-.08-10.26,0-15.34a72.38,72.38,0,0,1,.71-9.45c.62-4,2.86-5.32,6.69-4.29.1,0,.22,0,.47-.11ZM446.92,421V384.4h-9.09v36.53c.61,0,1.14.07,1.66.07Zm1.37-46a5.95,5.95,0,1,0-5.95,6A5.91,5.91,0,0,0,448.29,375Z" transform="translate(-150.45 -101.2)"/><path d="M169.57,289.25v27.83H150.45V101.2h19.05v85.94l.4.18c.4-.46.8-.92,1.19-1.39C180,175,190.6,166.38,204,161.51c11-4,22.39-5,34.07-3.76,31.35,3.26,55.12,29.52,62.86,54.31a89.75,89.75,0,0,1,3.26,39.18c-3.89,28.71-19,49.72-44.55,63-12.22,6.38-25.54,7.95-39.23,6.52-21.18-2.21-37-13.23-49.31-29.94-.28-.38-.57-.77-.86-1.15A5.19,5.19,0,0,0,169.57,289.25ZM168.2,240a69.32,69.32,0,0,0,2,16.31c5.23,22,24.68,42.57,49,45.09,12.25,1.27,23.79-.55,34.64-6.47,21.58-11.79,34.47-38.13,31.12-64.46a63.64,63.64,0,0,0-12.75-31.36c-14.37-18.57-33.14-26.82-56.55-22.37a56.27,56.27,0,0,0-34.62,21.44C171.92,209.94,168.14,223.55,168.2,240Z" transform="translate(-150.45 -101.2)"/><path d="M651.68,189.35V161.27h18.73v155.8H651.7V290.63c-.72.81-1.12,1.25-1.5,1.71-8.76,10.58-19.06,19.12-32,24.14A71.19,71.19,0,0,1,584,320.8c-26.52-3-44.86-17.86-57.85-40.2-6.51-11.19-9.43-23.5-10.09-36.42s.76-25.72,5.92-37.73c9-21,23.77-36.56,45.36-44.89,11-4.24,22.5-5.19,34.23-3.81C622.37,160.21,638,171,650,187.53c.39.53.79,1.05,1.19,1.57A2.89,2.89,0,0,0,651.68,189.35Zm1.12,49.11a62.88,62.88,0,0,0-3.48-21.27c-8.42-24.48-32-44.49-63.48-39.93a53,53,0,0,0-25.34,10.56c-16.64,12.92-24.57,30.31-25.13,51.11-.31,11.64,2.87,22.54,8.44,32.77,11.43,21,34.17,34.41,59.21,30.25a57.38,57.38,0,0,0,36.6-21.39C649,268.76,652.86,255.05,652.8,238.46Z" transform="translate(-150.45 -101.2)"/><path d="M410.64,321.31c-17.44-.12-33-4.29-46.38-15a83.07,83.07,0,0,1-28.86-43.7A84.79,84.79,0,0,1,333,229.74c3.41-28.48,17.39-50.29,42.49-64.4,12.46-7,26.24-8.89,40.43-7.92,13.55.92,26,5,37,13.06,17,12.53,28.09,29.07,32.42,49.79,4.49,21.46,2.18,42.14-8.78,61.41-8.07,14.19-19,25.59-34,32.72C432.28,319.29,421.34,321.16,410.64,321.31Zm-.87-19c3.27-.33,6.56-.51,9.79-1a52.63,52.63,0,0,0,30.09-15.45c11.11-11.33,16.95-25.14,18-40.93,1.12-16.08-2.5-30.93-12.34-43.88-12.91-17-29.69-25.9-51.51-23.73a48,48,0,0,0-21.39,7.11c-18.86,12-29,29.31-30.48,51.6a66.08,66.08,0,0,0,5,30C366.69,289.29,387.51,302.3,409.76,302.28Z" transform="translate(-150.45 -101.2)"/><path d="M419.52,388v-3.61h9.19v36.44h-9.06l-.18-3.13a43.75,43.75,0,0,1-5.44,3.18c-7.05,2.89-14.91.31-19.77-6.31-5-6.81-4.82-17.86.29-24.56C400.27,382.55,411.14,380.5,419.52,388ZM400,402.56a10.12,10.12,0,0,0,7.43,10.51c3.93.85,7.43,0,10-3.11,3-3.58,3.31-7.74,1.66-12-1.81-4.64-6.37-6.78-11.57-5.81A10,10,0,0,0,400,402.56Z" transform="translate(-150.45 -101.2)"/><path d="M360.16,387.13c2.93-1.22,5.7-2.84,8.69-3.53,7.09-1.65,14,2.89,14.51,10.12.6,9,.14,18,.14,27.18h-9c0-.72,0-1.41,0-2.11-.11-6.76-.13-13.53-.37-20.28-.14-4-2-6.1-5.32-6.59a7,7,0,0,0-7.07,4,15.48,15.48,0,0,0-1.48,5.82c-.2,5.68-.09,11.38-.1,17.06,0,.65,0,1.31,0,2.1H351V370.07h9.2Z" transform="translate(-150.45 -101.2)"/><path d="M474.68,384.28l-2.74,7.42c-.25.06-.37.14-.47.11-3.83-1-6.06.26-6.69,4.29a72.38,72.38,0,0,0-.71,9.45c-.11,5.07,0,10.15,0,15.34H454.9V384.39h7.84l.14,3a44.46,44.46,0,0,1,5.22-3.58C470.17,382.76,472.39,383.11,474.68,384.28Z" transform="translate(-150.45 -101.2)"/><path d="M446.92,421h-7.43c-.52,0-1,0-1.66-.07V384.4h9.09Z" transform="translate(-150.45 -101.2)"/><path d="M448.29,375a5.91,5.91,0,0,1-5.95,6,6.08,6.08,0,1,1,5.95-6Z" transform="translate(-150.45 -101.2)"/><path class="cls-1" d="M168.2,240c-.05-16.42,3.73-30,12.9-41.81a56.27,56.27,0,0,1,34.62-21.44c23.41-4.45,42.18,3.8,56.55,22.37A63.64,63.64,0,0,1,285,230.44c3.35,26.33-9.54,52.66-31.12,64.46-10.85,5.93-22.38,7.75-34.64,6.47-24.33-2.52-43.79-23-49-45.09A69.32,69.32,0,0,1,168.2,240Z" transform="translate(-150.45 -101.2)"/><path class="cls-1" d="M652.8,238.46c.06,16.59-3.8,30.3-13.19,42.09A57.38,57.38,0,0,1,603,301.94c-25,4.16-47.78-9.25-59.21-30.25-5.57-10.23-8.75-21.13-8.44-32.77.56-20.79,8.49-38.19,25.13-51.11a53,53,0,0,1,25.34-10.56c31.45-4.56,55.06,15.45,63.48,39.93A62.88,62.88,0,0,1,652.8,238.46Z" transform="translate(-150.45 -101.2)"/><path class="cls-1" d="M409.76,302.28c-22.26,0-43.07-13-52.78-36.33a66.08,66.08,0,0,1-5-30c1.45-22.29,11.62-39.58,30.48-51.6a48,48,0,0,1,21.39-7.11c21.83-2.17,38.6,6.74,51.51,23.73,9.84,12.94,13.46,27.8,12.34,43.88-1.1,15.79-6.93,29.59-18,40.93a52.63,52.63,0,0,1-30.09,15.45C416.32,301.77,413,301.95,409.76,302.28Z" transform="translate(-150.45 -101.2)"/><path class="cls-1" d="M400,402.56a10,10,0,0,1,7.56-10.37c5.21-1,9.77,1.17,11.57,5.81,1.65,4.23,1.31,8.38-1.66,12-2.61,3.15-6.12,4-10,3.11A10.12,10.12,0,0,1,400,402.56Z" transform="translate(-150.45 -101.2)"/></svg>